<svg width="51" height="50" viewBox="0 0 51 50" fill="none" xmlns="http://www.w3.org/2000/svg">
<path d="M25.5 0C11.4112 0 0 11.478 0 25.6347C0 36.9632 7.30575 46.5698 17.4356 49.9557C18.7106 50.1971 19.1781 49.4046 19.1781 48.7231C19.1781 48.1143 19.1569 46.5014 19.1463 44.3652C12.053 45.9118 10.557 40.9259 10.557 40.9259C9.39675 37.9672 7.72012 37.1768 7.72012 37.1768C5.41025 35.5874 7.89863 35.6195 7.89863 35.6195C10.4593 35.7989 11.8044 38.2599 11.8044 38.2599C14.0781 42.1798 17.7735 41.0476 19.2313 40.3918C19.4608 38.7341 20.1174 37.604 20.8463 36.9632C15.1831 36.3223 9.231 34.1177 9.231 24.2953C9.231 21.4969 10.2191 19.2111 11.8554 17.4167C11.5685 16.7694 10.7079 14.1632 12.0785 10.632C12.0785 10.632 14.2141 9.94415 19.091 13.2596C21.131 12.6892 23.2985 12.4072 25.466 12.3944C27.6335 12.4072 29.801 12.6892 31.841 13.2596C36.686 9.94415 38.8216 10.632 38.8216 10.632C40.1922 14.1632 39.3316 16.7694 39.0766 17.4167C40.7022 19.2111 41.6904 21.4969 41.6904 24.2953C41.6904 34.1433 35.7298 36.3116 30.056 36.9418C30.9485 37.7108 31.7773 39.2831 31.7773 41.6842C31.7773 45.115 31.7454 47.8708 31.7454 48.7039C31.7454 49.3768 32.1916 50.1779 33.4985 49.9215C43.7006 46.5591 51 36.9461 51 25.6347C51 11.478 39.5824 0 25.5 0Z" fill="#060605"/>
</svg>
